<?xml version="1.0" encoding="UTF-8" standalone="no"?>
<!DOCTYPE svg PUBLIC "-//W3C//DTD SVG 1.1//EN"
 "http://www.w3.org/Graphics/SVG/1.1/DTD/svg11.dtd">
<!-- Generated by graphviz version 2.43.0 (0)
 -->
<!-- Title: Horus::Debug::InstrumentationTimer Pages: 1 -->
<svg width="402pt" height="263pt"
 viewBox="0.00 0.00 402.00 263.00" xmlns="http://www.w3.org/2000/svg" xmlns:xlink="http://www.w3.org/1999/xlink">
<g id="graph0" class="graph" transform="scale(1 1) rotate(0) translate(4 259)">
<title>Horus::Debug::InstrumentationTimer</title>
<polygon fill="white" stroke="transparent" points="-4,4 -4,-259 398,-259 398,4 -4,4"/>
<!-- Node1 -->
<g id="node1" class="node">
<title>Node1</title>
<g id="a_node1"><a xlink:title=" ">
<polygon fill="#bfbfbf" stroke="black" points="133.5,-0.5 133.5,-30.5 300.5,-30.5 300.5,-0.5 133.5,-0.5"/>
<text text-anchor="start" x="141.5" y="-18.5" font-family="Helvetica,sans-Serif" font-size="10.00">Horus::Debug::Instrumentation</text>
<text text-anchor="middle" x="217" y="-7.5" font-family="Helvetica,sans-Serif" font-size="10.00">Timer</text>
</a>
</g>
</g>
<!-- Node2 -->
<g id="node2" class="node">
<title>Node2</title>
<g id="a_node2"><a xlink:href="struct_horus_1_1_debug_1_1_profile_result.html" target="_top" xlink:title=" ">
<polygon fill="white" stroke="black" points="30,-84 30,-103 180,-103 180,-84 30,-84"/>
<text text-anchor="middle" x="105" y="-91" font-family="Helvetica,sans-Serif" font-size="10.00">Horus::Debug::ProfileResult</text>
</a>
</g>
</g>
<!-- Node2&#45;&gt;Node1 -->
<g id="edge1" class="edge">
<title>Node2&#45;&gt;Node1</title>
<path fill="none" stroke="#9a32cd" stroke-dasharray="5,2" d="M125.68,-77.72C137.67,-69.21 153.11,-58.38 167,-49 176.09,-42.86 186.23,-36.23 194.98,-30.57"/>
<polygon fill="#9a32cd" stroke="#9a32cd" points="123.38,-75.06 117.26,-83.7 127.44,-80.76 123.38,-75.06"/>
<text text-anchor="middle" x="190" y="-52" font-family="Helvetica,sans-Serif" font-size="10.00"> m_result</text>
</g>
<!-- Node3 -->
<g id="node3" class="node">
<title>Node3</title>
<g id="a_node3"><a xlink:title=" ">
<polygon fill="white" stroke="#bfbfbf" points="0,-167.5 0,-186.5 56,-186.5 56,-167.5 0,-167.5"/>
<text text-anchor="middle" x="28" y="-174.5" font-family="Helvetica,sans-Serif" font-size="10.00">uint32_t</text>
</a>
</g>
</g>
<!-- Node3&#45;&gt;Node2 -->
<g id="edge2" class="edge">
<title>Node3&#45;&gt;Node2</title>
<path fill="none" stroke="#9a32cd" stroke-dasharray="5,2" d="M34.18,-157.48C38.14,-147.62 44.04,-135.75 52,-127 61.3,-116.78 74.55,-108.65 85.47,-103.08"/>
<polygon fill="#9a32cd" stroke="#9a32cd" points="30.79,-156.57 30.64,-167.16 37.36,-158.97 30.79,-156.57"/>
<text text-anchor="middle" x="76.5" y="-135.5" font-family="Helvetica,sans-Serif" font-size="10.00"> thread_id</text>
</g>
<!-- Node4 -->
<g id="node4" class="node">
<title>Node4</title>
<g id="a_node4"><a xlink:title=" ">
<polygon fill="white" stroke="#bfbfbf" points="74,-167.5 74,-186.5 136,-186.5 136,-167.5 74,-167.5"/>
<text text-anchor="middle" x="105" y="-174.5" font-family="Helvetica,sans-Serif" font-size="10.00">long long</text>
</a>
</g>
</g>
<!-- Node4&#45;&gt;Node2 -->
<g id="edge3" class="edge">
<title>Node4&#45;&gt;Node2</title>
<path fill="none" stroke="#9a32cd" stroke-dasharray="5,2" d="M105,-156.88C105,-139.9 105,-115.87 105,-103.16"/>
<polygon fill="#9a32cd" stroke="#9a32cd" points="101.5,-157.28 105,-167.28 108.5,-157.28 101.5,-157.28"/>
<text text-anchor="middle" x="116.5" y="-141" font-family="Helvetica,sans-Serif" font-size="10.00"> end</text>
<text text-anchor="middle" x="116.5" y="-130" font-family="Helvetica,sans-Serif" font-size="10.00">start</text>
</g>
<!-- Node5 -->
<g id="node5" class="node">
<title>Node5</title>
<g id="a_node5"><a xlink:title="STL class.">
<polygon fill="white" stroke="#bfbfbf" points="154.5,-167.5 154.5,-186.5 219.5,-186.5 219.5,-167.5 154.5,-167.5"/>
<text text-anchor="middle" x="187" y="-174.5" font-family="Helvetica,sans-Serif" font-size="10.00">std::string</text>
</a>
</g>
</g>
<!-- Node5&#45;&gt;Node2 -->
<g id="edge4" class="edge">
<title>Node5&#45;&gt;Node2</title>
<path fill="none" stroke="#9a32cd" stroke-dasharray="5,2" d="M171.11,-160.2C153.98,-143.18 127.36,-116.72 113.71,-103.16"/>
<polygon fill="#9a32cd" stroke="#9a32cd" points="168.66,-162.71 178.22,-167.28 173.6,-157.75 168.66,-162.71"/>
<text text-anchor="middle" x="174.5" y="-135.5" font-family="Helvetica,sans-Serif" font-size="10.00"> name</text>
</g>
<!-- Node6 -->
<g id="node6" class="node">
<title>Node6</title>
<g id="a_node6"><a xlink:title="STL class.">
<polygon fill="white" stroke="#bfbfbf" points="135,-224.5 135,-254.5 239,-254.5 239,-224.5 135,-224.5"/>
<text text-anchor="start" x="143" y="-242.5" font-family="Helvetica,sans-Serif" font-size="10.00">std::basic_string&lt;</text>
<text text-anchor="middle" x="187" y="-231.5" font-family="Helvetica,sans-Serif" font-size="10.00"> char &gt;</text>
</a>
</g>
</g>
<!-- Node6&#45;&gt;Node5 -->
<g id="edge5" class="edge">
<title>Node6&#45;&gt;Node5</title>
<path fill="none" stroke="midnightblue" d="M187,-214.35C187,-204.51 187,-193.78 187,-186.54"/>
<polygon fill="midnightblue" stroke="midnightblue" points="183.5,-214.47 187,-224.47 190.5,-214.47 183.5,-214.47"/>
</g>
<!-- Node7 -->
<g id="node7" class="node">
<title>Node7</title>
<g id="a_node7"><a xlink:title=" ">
<polygon fill="white" stroke="#bfbfbf" points="198,-84 198,-103 236,-103 236,-84 198,-84"/>
<text text-anchor="middle" x="217" y="-91" font-family="Helvetica,sans-Serif" font-size="10.00">bool</text>
</a>
</g>
</g>
<!-- Node7&#45;&gt;Node1 -->
<g id="edge6" class="edge">
<title>Node7&#45;&gt;Node1</title>
<path fill="none" stroke="#9a32cd" stroke-dasharray="5,2" d="M217,-73.78C217,-60.4 217,-42.69 217,-30.52"/>
<polygon fill="#9a32cd" stroke="#9a32cd" points="213.5,-73.78 217,-83.78 220.5,-73.78 213.5,-73.78"/>
<text text-anchor="middle" x="246" y="-52" font-family="Helvetica,sans-Serif" font-size="10.00"> m_stopped</text>
</g>
<!-- Node8 -->
<g id="node8" class="node">
<title>Node8</title>
<g id="a_node8"><a xlink:title=" ">
<polygon fill="white" stroke="#bfbfbf" points="254,-78.5 254,-108.5 394,-108.5 394,-78.5 254,-78.5"/>
<text text-anchor="start" x="262" y="-96.5" font-family="Helvetica,sans-Serif" font-size="10.00">time_point&lt; std::chrono</text>
<text text-anchor="middle" x="324" y="-85.5" font-family="Helvetica,sans-Serif" font-size="10.00">::high_resolution_clock &gt;</text>
</a>
</g>
</g>
<!-- Node8&#45;&gt;Node1 -->
<g id="edge7" class="edge">
<title>Node8&#45;&gt;Node1</title>
<path fill="none" stroke="#9a32cd" stroke-dasharray="5,2" d="M304.49,-71.26C296.95,-63.71 287.98,-55.49 279,-49 269.44,-42.1 258.23,-35.76 247.98,-30.55"/>
<polygon fill="#9a32cd" stroke="#9a32cd" points="302.03,-73.75 311.5,-78.49 307.05,-68.88 302.03,-73.75"/>
<text text-anchor="middle" x="341.5" y="-52" font-family="Helvetica,sans-Serif" font-size="10.00"> m_start_time_point</text>
</g>
</g>
</svg>
