<?xml version="1.0" encoding="UTF-8" standalone="no"?>
<!DOCTYPE svg PUBLIC "-//W3C//DTD SVG 1.1//EN"
 "http://www.w3.org/Graphics/SVG/1.1/DTD/svg11.dtd">
<!-- Generated by graphviz version 2.43.0 (0)
 -->
<!-- Title: Horus::Debug::Instrumentor Pages: 1 -->
<svg width="512pt" height="345pt"
 viewBox="0.00 0.00 511.50 345.00" xmlns="http://www.w3.org/2000/svg" xmlns:xlink="http://www.w3.org/1999/xlink">
<g id="graph0" class="graph" transform="scale(1 1) rotate(0) translate(4 341)">
<title>Horus::Debug::Instrumentor</title>
<polygon fill="white" stroke="transparent" points="-4,4 -4,-341 507.5,-341 507.5,4 -4,4"/>
<!-- Node1 -->
<g id="node1" class="node">
<title>Node1</title>
<g id="a_node1"><a xlink:title=" ">
<polygon fill="#bfbfbf" stroke="black" points="130.5,-0.5 130.5,-19.5 282.5,-19.5 282.5,-0.5 130.5,-0.5"/>
<text text-anchor="middle" x="206.5" y="-7.5" font-family="Helvetica,sans-Serif" font-size="10.00">Horus::Debug::Instrumentor</text>
</a>
</g>
</g>
<!-- Node2 -->
<g id="node2" class="node">
<title>Node2</title>
<g id="a_node2"><a xlink:title="STL class.">
<polygon fill="white" stroke="#bfbfbf" points="0,-67.5 0,-86.5 69,-86.5 69,-67.5 0,-67.5"/>
<text text-anchor="middle" x="34.5" y="-74.5" font-family="Helvetica,sans-Serif" font-size="10.00">std::mutex</text>
</a>
</g>
</g>
<!-- Node2&#45;&gt;Node1 -->
<g id="edge1" class="edge">
<title>Node2&#45;&gt;Node1</title>
<path fill="none" stroke="#9a32cd" stroke-dasharray="5,2" d="M46.24,-58.98C52.32,-51.43 60.39,-43.1 69.5,-38 87.9,-27.69 109.62,-21.27 130.27,-17.29"/>
<polygon fill="#9a32cd" stroke="#9a32cd" points="43.24,-57.16 40.06,-67.26 48.85,-61.34 43.24,-57.16"/>
<text text-anchor="middle" x="89" y="-41" font-family="Helvetica,sans-Serif" font-size="10.00"> m_lock</text>
</g>
<!-- Node3 -->
<g id="node3" class="node">
<title>Node3</title>
<g id="a_node3"><a xlink:title=" ">
<polygon fill="white" stroke="#bfbfbf" points="87,-67.5 87,-86.5 116,-86.5 116,-67.5 87,-67.5"/>
<text text-anchor="middle" x="101.5" y="-74.5" font-family="Helvetica,sans-Serif" font-size="10.00">int</text>
</a>
</g>
</g>
<!-- Node3&#45;&gt;Node1 -->
<g id="edge2" class="edge">
<title>Node3&#45;&gt;Node1</title>
<path fill="none" stroke="#9a32cd" stroke-dasharray="5,2" d="M107.17,-57.67C110.15,-50.67 114.46,-43.14 120.5,-38 130.51,-29.47 143.2,-23.64 155.75,-19.64"/>
<polygon fill="#9a32cd" stroke="#9a32cd" points="103.83,-56.61 103.72,-67.21 110.41,-58.99 103.83,-56.61"/>
<text text-anchor="middle" x="161.5" y="-41" font-family="Helvetica,sans-Serif" font-size="10.00"> m_profile_count</text>
</g>
<!-- Node4 -->
<g id="node4" class="node">
<title>Node4</title>
<g id="a_node4"><a xlink:title=" ">
<polygon fill="white" stroke="#bfbfbf" points="187.5,-67.5 187.5,-86.5 225.5,-86.5 225.5,-67.5 187.5,-67.5"/>
<text text-anchor="middle" x="206.5" y="-74.5" font-family="Helvetica,sans-Serif" font-size="10.00">bool</text>
</a>
</g>
</g>
<!-- Node4&#45;&gt;Node1 -->
<g id="edge3" class="edge">
<title>Node4&#45;&gt;Node1</title>
<path fill="none" stroke="#9a32cd" stroke-dasharray="5,2" d="M206.5,-57.04C206.5,-44.67 206.5,-29.12 206.5,-19.63"/>
<polygon fill="#9a32cd" stroke="#9a32cd" points="203,-57.23 206.5,-67.23 210,-57.23 203,-57.23"/>
<text text-anchor="middle" x="252" y="-41" font-family="Helvetica,sans-Serif" font-size="10.00"> m_active_session</text>
</g>
<!-- Node5 -->
<g id="node5" class="node">
<title>Node5</title>
<g id="a_node5"><a xlink:title="STL class.">
<polygon fill="white" stroke="#bfbfbf" points="280,-67.5 280,-86.5 345,-86.5 345,-67.5 280,-67.5"/>
<text text-anchor="middle" x="312.5" y="-74.5" font-family="Helvetica,sans-Serif" font-size="10.00">std::string</text>
</a>
</g>
</g>
<!-- Node5&#45;&gt;Node1 -->
<g id="edge4" class="edge">
<title>Node5&#45;&gt;Node1</title>
<path fill="none" stroke="#9a32cd" stroke-dasharray="5,2" d="M309.26,-57.2C307.22,-50.34 303.89,-43.04 298.5,-38 289.38,-29.48 277.71,-23.63 265.76,-19.62"/>
<polygon fill="#9a32cd" stroke="#9a32cd" points="305.91,-58.24 311.54,-67.22 312.74,-56.69 305.91,-58.24"/>
<text text-anchor="middle" x="350.5" y="-41" font-family="Helvetica,sans-Serif" font-size="10.00"> m_session_name</text>
</g>
<!-- Node6 -->
<g id="node6" class="node">
<title>Node6</title>
<g id="a_node6"><a xlink:title="STL class.">
<polygon fill="white" stroke="#bfbfbf" points="259.5,-124.5 259.5,-154.5 363.5,-154.5 363.5,-124.5 259.5,-124.5"/>
<text text-anchor="start" x="267.5" y="-142.5" font-family="Helvetica,sans-Serif" font-size="10.00">std::basic_string&lt;</text>
<text text-anchor="middle" x="311.5" y="-131.5" font-family="Helvetica,sans-Serif" font-size="10.00"> char &gt;</text>
</a>
</g>
</g>
<!-- Node6&#45;&gt;Node5 -->
<g id="edge5" class="edge">
<title>Node6&#45;&gt;Node5</title>
<path fill="none" stroke="midnightblue" d="M311.9,-114.35C312.06,-104.51 312.24,-93.78 312.36,-86.54"/>
<polygon fill="midnightblue" stroke="midnightblue" points="308.4,-114.41 311.73,-124.47 315.4,-114.53 308.4,-114.41"/>
</g>
<!-- Node7 -->
<g id="node7" class="node">
<title>Node7</title>
<g id="a_node7"><a xlink:title="STL class.">
<polygon fill="white" stroke="#bfbfbf" points="394.5,-67.5 394.5,-86.5 476.5,-86.5 476.5,-67.5 394.5,-67.5"/>
<text text-anchor="middle" x="435.5" y="-74.5" font-family="Helvetica,sans-Serif" font-size="10.00">std::ofstream</text>
</a>
</g>
</g>
<!-- Node7&#45;&gt;Node1 -->
<g id="edge6" class="edge">
<title>Node7&#45;&gt;Node1</title>
<path fill="none" stroke="#9a32cd" stroke-dasharray="5,2" d="M423.68,-59.54C417.16,-51.72 408.39,-43.01 398.5,-38 378.46,-27.84 327.11,-20.93 282.55,-16.65"/>
<polygon fill="#9a32cd" stroke="#9a32cd" points="420.92,-61.69 429.82,-67.45 426.46,-57.4 420.92,-61.69"/>
<text text-anchor="middle" x="458.5" y="-41" font-family="Helvetica,sans-Serif" font-size="10.00"> m_output_stream</text>
</g>
<!-- Node8 -->
<g id="node8" class="node">
<title>Node8</title>
<g id="a_node8"><a xlink:title="STL class.">
<polygon fill="white" stroke="#bfbfbf" points="382,-124.5 382,-154.5 495,-154.5 495,-124.5 382,-124.5"/>
<text text-anchor="start" x="390" y="-142.5" font-family="Helvetica,sans-Serif" font-size="10.00">std::basic_ofstream</text>
<text text-anchor="middle" x="438.5" y="-131.5" font-family="Helvetica,sans-Serif" font-size="10.00">&lt; char &gt;</text>
</a>
</g>
</g>
<!-- Node8&#45;&gt;Node7 -->
<g id="edge7" class="edge">
<title>Node8&#45;&gt;Node7</title>
<path fill="none" stroke="midnightblue" d="M437.3,-114.35C436.81,-104.51 436.28,-93.78 435.92,-86.54"/>
<polygon fill="midnightblue" stroke="midnightblue" points="433.81,-114.65 437.8,-124.47 440.8,-114.31 433.81,-114.65"/>
</g>
<!-- Node9 -->
<g id="node9" class="node">
<title>Node9</title>
<g id="a_node9"><a xlink:title="STL class.">
<polygon fill="white" stroke="#bfbfbf" points="384,-192.5 384,-222.5 493,-222.5 493,-192.5 384,-192.5"/>
<text text-anchor="start" x="392" y="-210.5" font-family="Helvetica,sans-Serif" font-size="10.00">std::basic_ostream</text>
<text text-anchor="middle" x="438.5" y="-199.5" font-family="Helvetica,sans-Serif" font-size="10.00">&lt; Char &gt;</text>
</a>
</g>
</g>
<!-- Node9&#45;&gt;Node8 -->
<g id="edge8" class="edge">
<title>Node9&#45;&gt;Node8</title>
<path fill="none" stroke="midnightblue" d="M438.5,-182.03C438.5,-172.86 438.5,-162.74 438.5,-154.79"/>
<polygon fill="midnightblue" stroke="midnightblue" points="435,-182.18 438.5,-192.18 442,-182.18 435,-182.18"/>
</g>
<!-- Node10 -->
<g id="node10" class="node">
<title>Node10</title>
<g id="a_node10"><a xlink:title="STL class.">
<polygon fill="white" stroke="#bfbfbf" points="374.5,-260.5 374.5,-279.5 502.5,-279.5 502.5,-260.5 374.5,-260.5"/>
<text text-anchor="middle" x="438.5" y="-267.5" font-family="Helvetica,sans-Serif" font-size="10.00">std::basic_ios&lt; Char &gt;</text>
</a>
</g>
</g>
<!-- Node10&#45;&gt;Node9 -->
<g id="edge9" class="edge">
<title>Node10&#45;&gt;Node9</title>
<path fill="none" stroke="midnightblue" d="M438.5,-250.22C438.5,-241.36 438.5,-230.96 438.5,-222.76"/>
<polygon fill="midnightblue" stroke="midnightblue" points="435,-250.33 438.5,-260.33 442,-250.33 435,-250.33"/>
</g>
<!-- Node11 -->
<g id="node11" class="node">
<title>Node11</title>
<g id="a_node11"><a xlink:title="STL class.">
<polygon fill="white" stroke="#bfbfbf" points="398.5,-317.5 398.5,-336.5 478.5,-336.5 478.5,-317.5 398.5,-317.5"/>
<text text-anchor="middle" x="438.5" y="-324.5" font-family="Helvetica,sans-Serif" font-size="10.00">std::ios_base</text>
</a>
</g>
</g>
<!-- Node11&#45;&gt;Node10 -->
<g id="edge10" class="edge">
<title>Node11&#45;&gt;Node10</title>
<path fill="none" stroke="midnightblue" d="M438.5,-307.12C438.5,-297.82 438.5,-287.06 438.5,-279.71"/>
<polygon fill="midnightblue" stroke="midnightblue" points="435,-307.41 438.5,-317.41 442,-307.41 435,-307.41"/>
</g>
</g>
</svg>
