<?xml version="1.0" encoding="UTF-8" standalone="no"?>
<!DOCTYPE svg PUBLIC "-//W3C//DTD SVG 1.1//EN"
 "http://www.w3.org/Graphics/SVG/1.1/DTD/svg11.dtd">
<!-- Generated by graphviz version 2.43.0 (0)
 -->
<!-- Title: Horus::Debug::Instrumentor Pages: 1 -->
<svg width="519pt" height="650pt"
 viewBox="0.00 0.00 518.50 650.00" xmlns="http://www.w3.org/2000/svg" xmlns:xlink="http://www.w3.org/1999/xlink">
<g id="graph0" class="graph" transform="scale(1 1) rotate(0) translate(4 646)">
<title>Horus::Debug::Instrumentor</title>
<polygon fill="white" stroke="transparent" points="-4,4 -4,-646 514.5,-646 514.5,4 -4,4"/>
<!-- Node1 -->
<g id="node1" class="node">
<title>Node1</title>
<g id="a_node1"><a xlink:title=" ">
<polygon fill="#bfbfbf" stroke="black" points="133.5,-0.5 133.5,-134.5 285.5,-134.5 285.5,-0.5 133.5,-0.5"/>
<text text-anchor="middle" x="209.5" y="-122.5" font-family="Helvetica,sans-Serif" font-size="10.00">Horus::Debug::Instrumentor</text>
<polyline fill="none" stroke="black" points="133.5,-115.5 285.5,-115.5 "/>
<text text-anchor="middle" x="209.5" y="-103.5" font-family="Helvetica,sans-Serif" font-size="10.00"> </text>
<polyline fill="none" stroke="black" points="133.5,-96.5 285.5,-96.5 "/>
<text text-anchor="start" x="141.5" y="-84.5" font-family="Helvetica,sans-Serif" font-size="10.00">+ ~Instrumentor()</text>
<text text-anchor="start" x="141.5" y="-73.5" font-family="Helvetica,sans-Serif" font-size="10.00">+ begin_session()</text>
<text text-anchor="start" x="141.5" y="-62.5" font-family="Helvetica,sans-Serif" font-size="10.00">+ end_session()</text>
<text text-anchor="start" x="141.5" y="-51.5" font-family="Helvetica,sans-Serif" font-size="10.00">+ write_profile()</text>
<text text-anchor="start" x="141.5" y="-40.5" font-family="Helvetica,sans-Serif" font-size="10.00">+ write_header()</text>
<text text-anchor="start" x="141.5" y="-29.5" font-family="Helvetica,sans-Serif" font-size="10.00">+ write_footer()</text>
<text text-anchor="start" x="141.5" y="-18.5" font-family="Helvetica,sans-Serif" font-size="10.00">+ Instance()</text>
<text text-anchor="start" x="141.5" y="-7.5" font-family="Helvetica,sans-Serif" font-size="10.00">&#45; Instrumentor()</text>
</a>
</g>
</g>
<!-- Node2 -->
<g id="node2" class="node">
<title>Node2</title>
<g id="a_node2"><a xlink:title="STL class.">
<polygon fill="white" stroke="#bfbfbf" points="0,-182.5 0,-239.5 69,-239.5 69,-182.5 0,-182.5"/>
<text text-anchor="middle" x="34.5" y="-227.5" font-family="Helvetica,sans-Serif" font-size="10.00">std::mutex</text>
<polyline fill="none" stroke="#bfbfbf" points="0,-220.5 69,-220.5 "/>
<text text-anchor="middle" x="34.5" y="-208.5" font-family="Helvetica,sans-Serif" font-size="10.00"> </text>
<polyline fill="none" stroke="#bfbfbf" points="0,-201.5 69,-201.5 "/>
<text text-anchor="middle" x="34.5" y="-189.5" font-family="Helvetica,sans-Serif" font-size="10.00"> </text>
</a>
</g>
</g>
<!-- Node2&#45;&gt;Node1 -->
<g id="edge1" class="edge">
<title>Node2&#45;&gt;Node1</title>
<path fill="none" stroke="#404040" d="M47.43,-182.26C52.98,-172.27 60.12,-161.4 68.5,-153 84.31,-137.16 103.66,-123.1 122.9,-111.21"/>
<polygon fill="none" stroke="#404040" points="122.95,-111.18 126.04,-104.66 133.24,-105.01 130.15,-111.53 122.95,-111.18"/>
<text text-anchor="middle" x="90" y="-156" font-family="Helvetica,sans-Serif" font-size="10.00"> &#45;m_lock</text>
</g>
<!-- Node3 -->
<g id="node3" class="node">
<title>Node3</title>
<g id="a_node3"><a xlink:title=" ">
<polygon fill="white" stroke="#bfbfbf" points="87,-182.5 87,-239.5 116,-239.5 116,-182.5 87,-182.5"/>
<text text-anchor="middle" x="101.5" y="-227.5" font-family="Helvetica,sans-Serif" font-size="10.00">int</text>
<polyline fill="none" stroke="#bfbfbf" points="87,-220.5 116,-220.5 "/>
<text text-anchor="middle" x="101.5" y="-208.5" font-family="Helvetica,sans-Serif" font-size="10.00"> </text>
<polyline fill="none" stroke="#bfbfbf" points="87,-201.5 116,-201.5 "/>
<text text-anchor="middle" x="101.5" y="-189.5" font-family="Helvetica,sans-Serif" font-size="10.00"> </text>
</a>
</g>
</g>
<!-- Node3&#45;&gt;Node1 -->
<g id="edge2" class="edge">
<title>Node3&#45;&gt;Node1</title>
<path fill="none" stroke="#404040" d="M107.74,-182.39C110.7,-172.64 114.85,-161.89 120.5,-153 122.38,-150.05 124.38,-147.13 126.48,-144.25"/>
<polygon fill="none" stroke="#404040" points="126.61,-144.09 127.14,-136.9 133.98,-134.63 133.45,-141.82 126.61,-144.09"/>
<text text-anchor="middle" x="163" y="-156" font-family="Helvetica,sans-Serif" font-size="10.00"> &#45;m_profile_count</text>
</g>
<!-- Node4 -->
<g id="node4" class="node">
<title>Node4</title>
<g id="a_node4"><a xlink:title=" ">
<polygon fill="white" stroke="#bfbfbf" points="190.5,-182.5 190.5,-239.5 228.5,-239.5 228.5,-182.5 190.5,-182.5"/>
<text text-anchor="middle" x="209.5" y="-227.5" font-family="Helvetica,sans-Serif" font-size="10.00">bool</text>
<polyline fill="none" stroke="#bfbfbf" points="190.5,-220.5 228.5,-220.5 "/>
<text text-anchor="middle" x="209.5" y="-208.5" font-family="Helvetica,sans-Serif" font-size="10.00"> </text>
<polyline fill="none" stroke="#bfbfbf" points="190.5,-201.5 228.5,-201.5 "/>
<text text-anchor="middle" x="209.5" y="-189.5" font-family="Helvetica,sans-Serif" font-size="10.00"> </text>
</a>
</g>
</g>
<!-- Node4&#45;&gt;Node1 -->
<g id="edge3" class="edge">
<title>Node4&#45;&gt;Node1</title>
<path fill="none" stroke="#404040" d="M209.5,-182.38C209.5,-172.02 209.5,-159.66 209.5,-146.97"/>
<polygon fill="none" stroke="#404040" points="209.5,-146.75 205.5,-140.75 209.5,-134.75 213.5,-140.75 209.5,-146.75"/>
<text text-anchor="middle" x="256.5" y="-156" font-family="Helvetica,sans-Serif" font-size="10.00"> &#45;m_active_session</text>
</g>
<!-- Node5 -->
<g id="node5" class="node">
<title>Node5</title>
<g id="a_node5"><a xlink:title="STL class.">
<polygon fill="white" stroke="#bfbfbf" points="288,-182.5 288,-239.5 353,-239.5 353,-182.5 288,-182.5"/>
<text text-anchor="middle" x="320.5" y="-227.5" font-family="Helvetica,sans-Serif" font-size="10.00">std::string</text>
<polyline fill="none" stroke="#bfbfbf" points="288,-220.5 353,-220.5 "/>
<text text-anchor="middle" x="320.5" y="-208.5" font-family="Helvetica,sans-Serif" font-size="10.00"> </text>
<polyline fill="none" stroke="#bfbfbf" points="288,-201.5 353,-201.5 "/>
<text text-anchor="middle" x="320.5" y="-189.5" font-family="Helvetica,sans-Serif" font-size="10.00"> </text>
</a>
</g>
</g>
<!-- Node5&#45;&gt;Node1 -->
<g id="edge4" class="edge">
<title>Node5&#45;&gt;Node1</title>
<path fill="none" stroke="#404040" d="M316.06,-182.3C313.65,-172.53 310,-161.8 304.5,-153 301.22,-147.75 297.52,-142.64 293.53,-137.7"/>
<polygon fill="none" stroke="#404040" points="293.36,-137.51 286.42,-135.57 285.53,-128.42 292.48,-130.35 293.36,-137.51"/>
<text text-anchor="middle" x="356.5" y="-156" font-family="Helvetica,sans-Serif" font-size="10.00"> &#45;m_session_name</text>
</g>
<!-- Node6 -->
<g id="node6" class="node">
<title>Node6</title>
<g id="a_node6"><a xlink:title="STL class.">
<polygon fill="white" stroke="#bfbfbf" points="267.5,-277.5 267.5,-345.5 371.5,-345.5 371.5,-277.5 267.5,-277.5"/>
<text text-anchor="start" x="275.5" y="-333.5" font-family="Helvetica,sans-Serif" font-size="10.00">std::basic_string&lt;</text>
<text text-anchor="middle" x="319.5" y="-322.5" font-family="Helvetica,sans-Serif" font-size="10.00"> char &gt;</text>
<polyline fill="none" stroke="#bfbfbf" points="267.5,-315.5 371.5,-315.5 "/>
<text text-anchor="middle" x="319.5" y="-303.5" font-family="Helvetica,sans-Serif" font-size="10.00"> </text>
<polyline fill="none" stroke="#bfbfbf" points="267.5,-296.5 371.5,-296.5 "/>
<text text-anchor="middle" x="319.5" y="-284.5" font-family="Helvetica,sans-Serif" font-size="10.00"> </text>
</a>
</g>
</g>
<!-- Node6&#45;&gt;Node5 -->
<g id="edge5" class="edge">
<title>Node6&#45;&gt;Node5</title>
<path fill="none" stroke="midnightblue" d="M319.94,-267.38C320.03,-257.94 320.13,-248.2 320.22,-239.57"/>
<polygon fill="none" stroke="midnightblue" points="316.44,-267.39 319.84,-277.43 323.44,-267.46 316.44,-267.39"/>
</g>
<!-- Node7 -->
<g id="node7" class="node">
<title>Node7</title>
<g id="a_node7"><a xlink:title="STL class.">
<polygon fill="white" stroke="#bfbfbf" points="403.5,-182.5 403.5,-239.5 485.5,-239.5 485.5,-182.5 403.5,-182.5"/>
<text text-anchor="middle" x="444.5" y="-227.5" font-family="Helvetica,sans-Serif" font-size="10.00">std::ofstream</text>
<polyline fill="none" stroke="#bfbfbf" points="403.5,-220.5 485.5,-220.5 "/>
<text text-anchor="middle" x="444.5" y="-208.5" font-family="Helvetica,sans-Serif" font-size="10.00"> </text>
<polyline fill="none" stroke="#bfbfbf" points="403.5,-201.5 485.5,-201.5 "/>
<text text-anchor="middle" x="444.5" y="-189.5" font-family="Helvetica,sans-Serif" font-size="10.00"> </text>
</a>
</g>
</g>
<!-- Node7&#45;&gt;Node1 -->
<g id="edge6" class="edge">
<title>Node7&#45;&gt;Node1</title>
<path fill="none" stroke="#404040" d="M430.45,-182.24C424.22,-172.01 416.1,-160.99 406.5,-153 374.88,-126.69 333.84,-107.34 297.4,-93.86"/>
<polygon fill="none" stroke="#404040" points="297.05,-93.73 290.05,-95.47 285.75,-89.68 292.75,-87.94 297.05,-93.73"/>
<text text-anchor="middle" x="463.5" y="-156" font-family="Helvetica,sans-Serif" font-size="10.00"> &#45;m_output_stream</text>
</g>
<!-- Node8 -->
<g id="node8" class="node">
<title>Node8</title>
<g id="a_node8"><a xlink:title="STL class.">
<polygon fill="white" stroke="#bfbfbf" points="390,-277.5 390,-345.5 503,-345.5 503,-277.5 390,-277.5"/>
<text text-anchor="start" x="398" y="-333.5" font-family="Helvetica,sans-Serif" font-size="10.00">std::basic_ofstream</text>
<text text-anchor="middle" x="446.5" y="-322.5" font-family="Helvetica,sans-Serif" font-size="10.00">&lt; char &gt;</text>
<polyline fill="none" stroke="#bfbfbf" points="390,-315.5 503,-315.5 "/>
<text text-anchor="middle" x="446.5" y="-303.5" font-family="Helvetica,sans-Serif" font-size="10.00"> </text>
<polyline fill="none" stroke="#bfbfbf" points="390,-296.5 503,-296.5 "/>
<text text-anchor="middle" x="446.5" y="-284.5" font-family="Helvetica,sans-Serif" font-size="10.00"> </text>
</a>
</g>
</g>
<!-- Node8&#45;&gt;Node7 -->
<g id="edge7" class="edge">
<title>Node8&#45;&gt;Node7</title>
<path fill="none" stroke="midnightblue" d="M445.62,-267.38C445.43,-257.94 445.24,-248.2 445.06,-239.57"/>
<polygon fill="none" stroke="midnightblue" points="442.13,-267.5 445.83,-277.43 449.12,-267.36 442.13,-267.5"/>
</g>
<!-- Node9 -->
<g id="node9" class="node">
<title>Node9</title>
<g id="a_node9"><a xlink:title="STL class.">
<polygon fill="white" stroke="#bfbfbf" points="392,-383.5 392,-451.5 501,-451.5 501,-383.5 392,-383.5"/>
<text text-anchor="start" x="400" y="-439.5" font-family="Helvetica,sans-Serif" font-size="10.00">std::basic_ostream</text>
<text text-anchor="middle" x="446.5" y="-428.5" font-family="Helvetica,sans-Serif" font-size="10.00">&lt; Char &gt;</text>
<polyline fill="none" stroke="#bfbfbf" points="392,-421.5 501,-421.5 "/>
<text text-anchor="middle" x="446.5" y="-409.5" font-family="Helvetica,sans-Serif" font-size="10.00"> </text>
<polyline fill="none" stroke="#bfbfbf" points="392,-402.5 501,-402.5 "/>
<text text-anchor="middle" x="446.5" y="-390.5" font-family="Helvetica,sans-Serif" font-size="10.00"> </text>
</a>
</g>
</g>
<!-- Node9&#45;&gt;Node8 -->
<g id="edge8" class="edge">
<title>Node9&#45;&gt;Node8</title>
<path fill="none" stroke="midnightblue" d="M446.5,-373.17C446.5,-364 446.5,-354.46 446.5,-345.73"/>
<polygon fill="none" stroke="midnightblue" points="443,-373.31 446.5,-383.31 450,-373.31 443,-373.31"/>
</g>
<!-- Node10 -->
<g id="node10" class="node">
<title>Node10</title>
<g id="a_node10"><a xlink:title="STL class.">
<polygon fill="white" stroke="#bfbfbf" points="382.5,-489.5 382.5,-546.5 510.5,-546.5 510.5,-489.5 382.5,-489.5"/>
<text text-anchor="middle" x="446.5" y="-534.5" font-family="Helvetica,sans-Serif" font-size="10.00">std::basic_ios&lt; Char &gt;</text>
<polyline fill="none" stroke="#bfbfbf" points="382.5,-527.5 510.5,-527.5 "/>
<text text-anchor="middle" x="446.5" y="-515.5" font-family="Helvetica,sans-Serif" font-size="10.00"> </text>
<polyline fill="none" stroke="#bfbfbf" points="382.5,-508.5 510.5,-508.5 "/>
<text text-anchor="middle" x="446.5" y="-496.5" font-family="Helvetica,sans-Serif" font-size="10.00"> </text>
</a>
</g>
</g>
<!-- Node10&#45;&gt;Node9 -->
<g id="edge9" class="edge">
<title>Node10&#45;&gt;Node9</title>
<path fill="none" stroke="midnightblue" d="M446.5,-479.01C446.5,-469.96 446.5,-460.38 446.5,-451.58"/>
<polygon fill="none" stroke="midnightblue" points="443,-479.3 446.5,-489.3 450,-479.3 443,-479.3"/>
</g>
<!-- Node11 -->
<g id="node11" class="node">
<title>Node11</title>
<g id="a_node11"><a xlink:title="STL class.">
<polygon fill="white" stroke="#bfbfbf" points="406.5,-584.5 406.5,-641.5 486.5,-641.5 486.5,-584.5 406.5,-584.5"/>
<text text-anchor="middle" x="446.5" y="-629.5" font-family="Helvetica,sans-Serif" font-size="10.00">std::ios_base</text>
<polyline fill="none" stroke="#bfbfbf" points="406.5,-622.5 486.5,-622.5 "/>
<text text-anchor="middle" x="446.5" y="-610.5" font-family="Helvetica,sans-Serif" font-size="10.00"> </text>
<polyline fill="none" stroke="#bfbfbf" points="406.5,-603.5 486.5,-603.5 "/>
<text text-anchor="middle" x="446.5" y="-591.5" font-family="Helvetica,sans-Serif" font-size="10.00"> </text>
</a>
</g>
</g>
<!-- Node11&#45;&gt;Node10 -->
<g id="edge10" class="edge">
<title>Node11&#45;&gt;Node10</title>
<path fill="none" stroke="midnightblue" d="M446.5,-574.24C446.5,-565.03 446.5,-555.35 446.5,-546.71"/>
<polygon fill="none" stroke="midnightblue" points="443,-574.35 446.5,-584.35 450,-574.35 443,-574.35"/>
</g>
</g>
</svg>
