<?xml version="1.0" encoding="UTF-8" standalone="no"?>
<!DOCTYPE svg PUBLIC "-//W3C//DTD SVG 1.1//EN"
 "http://www.w3.org/Graphics/SVG/1.1/DTD/svg11.dtd">
<!-- Generated by graphviz version 2.43.0 (0)
 -->
<!-- Title: Horus::Logger Pages: 1 -->
<svg width="141pt" height="298pt"
 viewBox="0.00 0.00 141.00 298.00" xmlns="http://www.w3.org/2000/svg" xmlns:xlink="http://www.w3.org/1999/xlink">
<g id="graph0" class="graph" transform="scale(1 1) rotate(0) translate(4 294)">
<title>Horus::Logger</title>
<polygon fill="white" stroke="transparent" points="-4,4 -4,-294 137,-294 137,4 -4,4"/>
<!-- Node1 -->
<g id="node1" class="node">
<title>Node1</title>
<g id="a_node1"><a xlink:title="Horus Logger class.">
<polygon fill="#bfbfbf" stroke="black" points="23,-0.5 23,-68.5 110,-68.5 110,-0.5 23,-0.5"/>
<text text-anchor="middle" x="66.5" y="-56.5" font-family="Helvetica,sans-Serif" font-size="10.00">Horus::Logger</text>
<polyline fill="none" stroke="black" points="23,-49.5 110,-49.5 "/>
<text text-anchor="middle" x="66.5" y="-37.5" font-family="Helvetica,sans-Serif" font-size="10.00"> </text>
<polyline fill="none" stroke="black" points="23,-30.5 110,-30.5 "/>
<text text-anchor="start" x="31" y="-18.5" font-family="Helvetica,sans-Serif" font-size="10.00">+ init()</text>
<text text-anchor="start" x="31" y="-7.5" font-family="Helvetica,sans-Serif" font-size="10.00">+ get_logger()</text>
</a>
</g>
</g>
<!-- Node2 -->
<g id="node2" class="node">
<title>Node2</title>
<g id="a_node2"><a xlink:title=" ">
<polygon fill="white" stroke="#bfbfbf" points="0,-116.5 0,-184.5 133,-184.5 133,-116.5 0,-116.5"/>
<text text-anchor="start" x="8" y="-172.5" font-family="Helvetica,sans-Serif" font-size="10.00">std::shared_ptr&lt; spdlog</text>
<text text-anchor="middle" x="66.5" y="-161.5" font-family="Helvetica,sans-Serif" font-size="10.00">::logger &gt;</text>
<polyline fill="none" stroke="#bfbfbf" points="0,-154.5 133,-154.5 "/>
<text text-anchor="middle" x="66.5" y="-142.5" font-family="Helvetica,sans-Serif" font-size="10.00"> </text>
<polyline fill="none" stroke="#bfbfbf" points="0,-135.5 133,-135.5 "/>
<text text-anchor="start" x="8" y="-123.5" font-family="Helvetica,sans-Serif" font-size="10.00">+ operator&#45;&gt;()</text>
</a>
</g>
</g>
<!-- Node2&#45;&gt;Node1 -->
<g id="edge1" class="edge">
<title>Node2&#45;&gt;Node1</title>
<path fill="none" stroke="#404040" d="M66.5,-116.22C66.5,-105.1 66.5,-92.51 66.5,-80.64"/>
<polygon fill="none" stroke="#404040" points="66.5,-80.62 62.5,-74.62 66.5,-68.62 70.5,-74.62 66.5,-80.62"/>
<text text-anchor="middle" x="91" y="-90" font-family="Helvetica,sans-Serif" font-size="10.00"> &#45;s_logger</text>
</g>
<!-- Node3 -->
<g id="node3" class="node">
<title>Node3</title>
<g id="a_node3"><a xlink:title=" ">
<polygon fill="white" stroke="#bfbfbf" points="43,-232.5 43,-289.5 90,-289.5 90,-232.5 43,-232.5"/>
<text text-anchor="middle" x="66.5" y="-277.5" font-family="Helvetica,sans-Serif" font-size="10.00">logger</text>
<polyline fill="none" stroke="#bfbfbf" points="43,-270.5 90,-270.5 "/>
<text text-anchor="middle" x="66.5" y="-258.5" font-family="Helvetica,sans-Serif" font-size="10.00"> </text>
<polyline fill="none" stroke="#bfbfbf" points="43,-251.5 90,-251.5 "/>
<text text-anchor="middle" x="66.5" y="-239.5" font-family="Helvetica,sans-Serif" font-size="10.00"> </text>
</a>
</g>
</g>
<!-- Node3&#45;&gt;Node2 -->
<g id="edge2" class="edge">
<title>Node3&#45;&gt;Node2</title>
<path fill="none" stroke="#404040" d="M66.5,-232.34C66.5,-221.53 66.5,-208.85 66.5,-196.77"/>
<polygon fill="none" stroke="#404040" points="66.5,-196.52 62.5,-190.52 66.5,-184.52 70.5,-190.52 66.5,-196.52"/>
<text text-anchor="middle" x="79" y="-206" font-family="Helvetica,sans-Serif" font-size="10.00"> +ptr</text>
</g>
</g>
</svg>
