<?xml version="1.0" encoding="UTF-8" standalone="no"?>
<!DOCTYPE svg PUBLIC "-//W3C//DTD SVG 1.1//EN"
 "http://www.w3.org/Graphics/SVG/1.1/DTD/svg11.dtd">
<!-- Generated by graphviz version 2.43.0 (0)
 -->
<!-- Title: Horus::Debug::InstrumentationTimer Pages: 1 -->
<svg width="406pt" height="437pt"
 viewBox="0.00 0.00 406.00 437.00" xmlns="http://www.w3.org/2000/svg" xmlns:xlink="http://www.w3.org/1999/xlink">
<g id="graph0" class="graph" transform="scale(1 1) rotate(0) translate(4 433)">
<title>Horus::Debug::InstrumentationTimer</title>
<polygon fill="white" stroke="transparent" points="-4,4 -4,-433 402,-433 402,4 -4,4"/>
<!-- Node1 -->
<g id="node1" class="node">
<title>Node1</title>
<g id="a_node1"><a xlink:title=" ">
<polygon fill="#bfbfbf" stroke="black" points="137.5,-0.5 137.5,-90.5 304.5,-90.5 304.5,-0.5 137.5,-0.5"/>
<text text-anchor="start" x="145.5" y="-78.5" font-family="Helvetica,sans-Serif" font-size="10.00">Horus::Debug::Instrumentation</text>
<text text-anchor="middle" x="221" y="-67.5" font-family="Helvetica,sans-Serif" font-size="10.00">Timer</text>
<polyline fill="none" stroke="black" points="137.5,-60.5 304.5,-60.5 "/>
<text text-anchor="middle" x="221" y="-48.5" font-family="Helvetica,sans-Serif" font-size="10.00"> </text>
<polyline fill="none" stroke="black" points="137.5,-41.5 304.5,-41.5 "/>
<text text-anchor="start" x="145.5" y="-29.5" font-family="Helvetica,sans-Serif" font-size="10.00">+ InstrumentationTimer()</text>
<text text-anchor="start" x="145.5" y="-18.5" font-family="Helvetica,sans-Serif" font-size="10.00">+ ~InstrumentationTimer()</text>
<text text-anchor="start" x="145.5" y="-7.5" font-family="Helvetica,sans-Serif" font-size="10.00">+ stop()</text>
</a>
</g>
</g>
<!-- Node2 -->
<g id="node2" class="node">
<title>Node2</title>
<g id="a_node2"><a xlink:href="struct_horus_1_1_debug_1_1_profile_result.html" target="_top" xlink:title=" ">
<polygon fill="white" stroke="black" points="34,-144 34,-201 184,-201 184,-144 34,-144"/>
<text text-anchor="middle" x="109" y="-189" font-family="Helvetica,sans-Serif" font-size="10.00">Horus::Debug::ProfileResult</text>
<polyline fill="none" stroke="black" points="34,-182 184,-182 "/>
<text text-anchor="middle" x="109" y="-170" font-family="Helvetica,sans-Serif" font-size="10.00"> </text>
<polyline fill="none" stroke="black" points="34,-163 184,-163 "/>
<text text-anchor="middle" x="109" y="-151" font-family="Helvetica,sans-Serif" font-size="10.00"> </text>
</a>
</g>
</g>
<!-- Node2&#45;&gt;Node1 -->
<g id="edge1" class="edge">
<title>Node2&#45;&gt;Node1</title>
<path fill="none" stroke="#404040" d="M133.86,-143.76C145.38,-130.89 159.49,-115.15 172.97,-100.1"/>
<polygon fill="none" stroke="#404040" points="173.25,-99.79 174.27,-92.66 181.26,-90.86 180.23,-97.99 173.25,-99.79"/>
<text text-anchor="middle" x="190" y="-112" font-family="Helvetica,sans-Serif" font-size="10.00"> &#45;m_result</text>
</g>
<!-- Node3 -->
<g id="node3" class="node">
<title>Node3</title>
<g id="a_node3"><a xlink:title=" ">
<polygon fill="white" stroke="#bfbfbf" points="0,-265.5 0,-322.5 56,-322.5 56,-265.5 0,-265.5"/>
<text text-anchor="middle" x="28" y="-310.5" font-family="Helvetica,sans-Serif" font-size="10.00">uint32_t</text>
<polyline fill="none" stroke="#bfbfbf" points="0,-303.5 56,-303.5 "/>
<text text-anchor="middle" x="28" y="-291.5" font-family="Helvetica,sans-Serif" font-size="10.00"> </text>
<polyline fill="none" stroke="#bfbfbf" points="0,-284.5 56,-284.5 "/>
<text text-anchor="middle" x="28" y="-272.5" font-family="Helvetica,sans-Serif" font-size="10.00"> </text>
</a>
</g>
</g>
<!-- Node3&#45;&gt;Node2 -->
<g id="edge2" class="edge">
<title>Node3&#45;&gt;Node2</title>
<path fill="none" stroke="#404040" d="M31.82,-265.27C34.56,-252.27 39.2,-237.03 47,-225 50.57,-219.5 54.91,-214.28 59.62,-209.43"/>
<polygon fill="none" stroke="#404040" points="59.69,-209.37 61.3,-202.34 68.41,-201.12 66.79,-208.15 59.69,-209.37"/>
<text text-anchor="middle" x="76" y="-233.5" font-family="Helvetica,sans-Serif" font-size="10.00"> +thread_id</text>
</g>
<!-- Node4 -->
<g id="node4" class="node">
<title>Node4</title>
<g id="a_node4"><a xlink:title=" ">
<polygon fill="white" stroke="#bfbfbf" points="78,-265.5 78,-322.5 140,-322.5 140,-265.5 78,-265.5"/>
<text text-anchor="middle" x="109" y="-310.5" font-family="Helvetica,sans-Serif" font-size="10.00">long long</text>
<polyline fill="none" stroke="#bfbfbf" points="78,-303.5 140,-303.5 "/>
<text text-anchor="middle" x="109" y="-291.5" font-family="Helvetica,sans-Serif" font-size="10.00"> </text>
<polyline fill="none" stroke="#bfbfbf" points="78,-284.5 140,-284.5 "/>
<text text-anchor="middle" x="109" y="-272.5" font-family="Helvetica,sans-Serif" font-size="10.00"> </text>
</a>
</g>
</g>
<!-- Node4&#45;&gt;Node2 -->
<g id="edge3" class="edge">
<title>Node4&#45;&gt;Node2</title>
<path fill="none" stroke="#404040" d="M109,-265.28C109,-249.9 109,-230.49 109,-213.49"/>
<polygon fill="none" stroke="#404040" points="109,-213.07 105,-207.07 109,-201.07 113,-207.07 109,-213.07"/>
<text text-anchor="middle" x="126" y="-239" font-family="Helvetica,sans-Serif" font-size="10.00"> +start</text>
<text text-anchor="middle" x="126" y="-228" font-family="Helvetica,sans-Serif" font-size="10.00">+end</text>
</g>
<!-- Node5 -->
<g id="node5" class="node">
<title>Node5</title>
<g id="a_node5"><a xlink:title="STL class.">
<polygon fill="white" stroke="#bfbfbf" points="158.5,-265.5 158.5,-322.5 223.5,-322.5 223.5,-265.5 158.5,-265.5"/>
<text text-anchor="middle" x="191" y="-310.5" font-family="Helvetica,sans-Serif" font-size="10.00">std::string</text>
<polyline fill="none" stroke="#bfbfbf" points="158.5,-303.5 223.5,-303.5 "/>
<text text-anchor="middle" x="191" y="-291.5" font-family="Helvetica,sans-Serif" font-size="10.00"> </text>
<polyline fill="none" stroke="#bfbfbf" points="158.5,-284.5 223.5,-284.5 "/>
<text text-anchor="middle" x="191" y="-272.5" font-family="Helvetica,sans-Serif" font-size="10.00"> </text>
</a>
</g>
</g>
<!-- Node5&#45;&gt;Node2 -->
<g id="edge4" class="edge">
<title>Node5&#45;&gt;Node2</title>
<path fill="none" stroke="#404040" d="M173.61,-265.28C165.67,-252.85 156.04,-238.07 147,-225 143.86,-220.46 140.5,-215.73 137.14,-211.08"/>
<polygon fill="none" stroke="#404040" points="136.91,-210.76 130.14,-208.28 129.83,-201.07 136.6,-203.56 136.91,-210.76"/>
<text text-anchor="middle" x="181" y="-233.5" font-family="Helvetica,sans-Serif" font-size="10.00"> +name</text>
</g>
<!-- Node6 -->
<g id="node6" class="node">
<title>Node6</title>
<g id="a_node6"><a xlink:title="STL class.">
<polygon fill="white" stroke="#bfbfbf" points="139,-360.5 139,-428.5 243,-428.5 243,-360.5 139,-360.5"/>
<text text-anchor="start" x="147" y="-416.5" font-family="Helvetica,sans-Serif" font-size="10.00">std::basic_string&lt;</text>
<text text-anchor="middle" x="191" y="-405.5" font-family="Helvetica,sans-Serif" font-size="10.00"> char &gt;</text>
<polyline fill="none" stroke="#bfbfbf" points="139,-398.5 243,-398.5 "/>
<text text-anchor="middle" x="191" y="-386.5" font-family="Helvetica,sans-Serif" font-size="10.00"> </text>
<polyline fill="none" stroke="#bfbfbf" points="139,-379.5 243,-379.5 "/>
<text text-anchor="middle" x="191" y="-367.5" font-family="Helvetica,sans-Serif" font-size="10.00"> </text>
</a>
</g>
</g>
<!-- Node6&#45;&gt;Node5 -->
<g id="edge5" class="edge">
<title>Node6&#45;&gt;Node5</title>
<path fill="none" stroke="midnightblue" d="M191,-350.38C191,-340.94 191,-331.2 191,-322.57"/>
<polygon fill="none" stroke="midnightblue" points="187.5,-350.43 191,-360.43 194.5,-350.43 187.5,-350.43"/>
</g>
<!-- Node7 -->
<g id="node7" class="node">
<title>Node7</title>
<g id="a_node7"><a xlink:title=" ">
<polygon fill="white" stroke="#bfbfbf" points="202,-144 202,-201 240,-201 240,-144 202,-144"/>
<text text-anchor="middle" x="221" y="-189" font-family="Helvetica,sans-Serif" font-size="10.00">bool</text>
<polyline fill="none" stroke="#bfbfbf" points="202,-182 240,-182 "/>
<text text-anchor="middle" x="221" y="-170" font-family="Helvetica,sans-Serif" font-size="10.00"> </text>
<polyline fill="none" stroke="#bfbfbf" points="202,-163 240,-163 "/>
<text text-anchor="middle" x="221" y="-151" font-family="Helvetica,sans-Serif" font-size="10.00"> </text>
</a>
</g>
</g>
<!-- Node7&#45;&gt;Node1 -->
<g id="edge6" class="edge">
<title>Node7&#45;&gt;Node1</title>
<path fill="none" stroke="#404040" d="M221,-143.76C221,-131.74 221,-117.21 221,-103.09"/>
<polygon fill="none" stroke="#404040" points="221,-102.86 217,-96.86 221,-90.86 225,-96.86 221,-102.86"/>
<text text-anchor="middle" x="251.5" y="-112" font-family="Helvetica,sans-Serif" font-size="10.00"> &#45;m_stopped</text>
</g>
<!-- Node8 -->
<g id="node8" class="node">
<title>Node8</title>
<g id="a_node8"><a xlink:title=" ">
<polygon fill="white" stroke="#bfbfbf" points="258,-138.5 258,-206.5 398,-206.5 398,-138.5 258,-138.5"/>
<text text-anchor="start" x="266" y="-194.5" font-family="Helvetica,sans-Serif" font-size="10.00">time_point&lt; std::chrono</text>
<text text-anchor="middle" x="328" y="-183.5" font-family="Helvetica,sans-Serif" font-size="10.00">::high_resolution_clock &gt;</text>
<polyline fill="none" stroke="#bfbfbf" points="258,-176.5 398,-176.5 "/>
<text text-anchor="middle" x="328" y="-164.5" font-family="Helvetica,sans-Serif" font-size="10.00"> </text>
<polyline fill="none" stroke="#bfbfbf" points="258,-157.5 398,-157.5 "/>
<text text-anchor="middle" x="328" y="-145.5" font-family="Helvetica,sans-Serif" font-size="10.00"> </text>
</a>
</g>
</g>
<!-- Node8&#45;&gt;Node1 -->
<g id="edge7" class="edge">
<title>Node8&#45;&gt;Node1</title>
<path fill="none" stroke="#404040" d="M307.68,-138.43C301.17,-128.64 293.65,-118.11 286,-109 283.35,-105.85 280.56,-102.68 277.69,-99.54"/>
<polygon fill="none" stroke="#404040" points="277.66,-99.5 270.63,-97.89 269.41,-90.78 276.44,-92.4 277.66,-99.5"/>
<text text-anchor="middle" x="345.5" y="-112" font-family="Helvetica,sans-Serif" font-size="10.00"> &#45;m_start_time_point</text>
</g>
</g>
</svg>
