<?xml version="1.0" encoding="UTF-8" standalone="no"?>
<!DOCTYPE svg PUBLIC "-//W3C//DTD SVG 1.1//EN"
 "http://www.w3.org/Graphics/SVG/1.1/DTD/svg11.dtd">
<!-- Generated by graphviz version 2.43.0 (0)
 -->
<!-- Title: /home/runner/work/cmake&#45;starter&#45;project/cmake&#45;starter&#45;project/application Pages: 1 -->
<svg width="182pt" height="183pt"
 viewBox="0.00 0.00 182.00 183.00" xmlns="http://www.w3.org/2000/svg" xmlns:xlink="http://www.w3.org/1999/xlink">
<g id="graph0" class="graph" transform="scale(1 1) rotate(0) translate(4 179)">
<title>/home/runner/work/cmake&#45;starter&#45;project/cmake&#45;starter&#45;project/application</title>
<polygon fill="white" stroke="transparent" points="-4,4 -4,-179 178,-179 178,4 -4,4"/>
<g id="clust1" class="cluster">
<title>clusterdir_157733d0f3e04ff3f504b6237af55ed5</title>
<g id="a_clust1"><a xlink:href="dir_157733d0f3e04ff3f504b6237af55ed5.html" target="_top" xlink:title="cmake&#45;starter&#45;project">
<polygon fill="#ddddee" stroke="black" points="8,-8 8,-167 166,-167 166,-8 8,-8"/>
<text text-anchor="middle" x="87" y="-155" font-family="Helvetica,sans-Serif" font-size="10.00">cmake&#45;starter&#45;project</text>
</a>
</g>
</g>
<g id="clust2" class="cluster">
<title>clusterdir_5750905eefca64d34c839bbc604a0c99</title>
<g id="a_clust2"><a xlink:href="dir_5750905eefca64d34c839bbc604a0c99.html" target="_top">
<polygon fill="#eeeeff" stroke="black" points="16,-16 16,-140 158,-140 158,-16 16,-16"/>
</a>
</g>
</g>
<!-- dir_5750905eefca64d34c839bbc604a0c99 -->
<g id="node1" class="node">
<title>dir_5750905eefca64d34c839bbc604a0c99</title>
<text text-anchor="middle" x="87" y="-111.5" font-family="Helvetica,sans-Serif" font-size="10.00">application</text>
</g>
<!-- dir_6eb70a790be4670225cf78ab162ae6e2 -->
<g id="node2" class="node">
<title>dir_6eb70a790be4670225cf78ab162ae6e2</title>
<g id="a_node2"><a xlink:href="dir_6eb70a790be4670225cf78ab162ae6e2.html" target="_top" xlink:title="core">
<polygon fill="white" stroke="black" points="78,-60 24,-60 24,-24 78,-24 78,-60"/>
<text text-anchor="middle" x="51" y="-39.5" font-family="Helvetica,sans-Serif" font-size="10.00">core</text>
</a>
</g>
</g>
<!-- dir_5750905eefca64d34c839bbc604a0c99&#45;&gt;dir_6eb70a790be4670225cf78ab162ae6e2 -->
<g id="edge1" class="edge">
<title>dir_5750905eefca64d34c839bbc604a0c99&#45;&gt;dir_6eb70a790be4670225cf78ab162ae6e2</title>
<path fill="none" stroke="black" d="M78.1,-95.7C74,-87.73 69.05,-78.1 64.51,-69.26"/>
<polygon fill="black" stroke="black" points="67.48,-67.4 59.8,-60.1 61.26,-70.6 67.48,-67.4"/>
<g id="a_edge1&#45;headlabel"><a xlink:href="dir_000001_000002.html" target="_top" xlink:title="2">
<text text-anchor="middle" x="71.65" y="-66.79" font-family="Helvetica,sans-Serif" font-size="10.00">2</text>
</a>
</g>
</g>
<!-- dir_d462e0c4d647462d0554d68f8327e183 -->
<g id="node3" class="node">
<title>dir_d462e0c4d647462d0554d68f8327e183</title>
<g id="a_node3"><a xlink:href="dir_d462e0c4d647462d0554d68f8327e183.html" target="_top" xlink:title="debug">
<polygon fill="white" stroke="black" points="150,-60 96,-60 96,-24 150,-24 150,-60"/>
<text text-anchor="middle" x="123" y="-39.5" font-family="Helvetica,sans-Serif" font-size="10.00">debug</text>
</a>
</g>
</g>
<!-- dir_5750905eefca64d34c839bbc604a0c99&#45;&gt;dir_d462e0c4d647462d0554d68f8327e183 -->
<g id="edge2" class="edge">
<title>dir_5750905eefca64d34c839bbc604a0c99&#45;&gt;dir_d462e0c4d647462d0554d68f8327e183</title>
<path fill="none" stroke="black" d="M95.9,-95.7C100,-87.73 104.95,-78.1 109.49,-69.26"/>
<polygon fill="black" stroke="black" points="112.74,-70.6 114.2,-60.1 106.52,-67.4 112.74,-70.6"/>
<g id="a_edge2&#45;headlabel"><a xlink:href="dir_000001_000003.html" target="_top" xlink:title="2">
<text text-anchor="middle" x="113.62" y="-72.59" font-family="Helvetica,sans-Serif" font-size="10.00">2</text>
</a>
</g>
</g>
</g>
</svg>
