<?xml version="1.0" encoding="UTF-8" standalone="no"?>
<!DOCTYPE svg PUBLIC "-//W3C//DTD SVG 1.1//EN"
 "http://www.w3.org/Graphics/SVG/1.1/DTD/svg11.dtd">
<!-- Generated by graphviz version 2.43.0 (0)
 -->
<!-- Title: /home/runner/work/cmake&#45;starter&#45;project/cmake&#45;starter&#45;project/application/debug/instrumentor.h Pages: 1 -->
<svg width="408pt" height="117pt"
 viewBox="0.00 0.00 408.00 117.00" xmlns="http://www.w3.org/2000/svg" xmlns:xlink="http://www.w3.org/1999/xlink">
<g id="graph0" class="graph" transform="scale(1 1) rotate(0) translate(4 113)">
<title>/home/runner/work/cmake&#45;starter&#45;project/cmake&#45;starter&#45;project/application/debug/instrumentor.h</title>
<polygon fill="white" stroke="transparent" points="-4,4 -4,-113 404,-113 404,4 -4,4"/>
<!-- Node1 -->
<g id="node1" class="node">
<title>Node1</title>
<g id="a_node1"><a xlink:title="Simple Instrumentor for Profiling.">
<polygon fill="#bfbfbf" stroke="black" points="114.5,-56.5 114.5,-108.5 261.5,-108.5 261.5,-56.5 114.5,-56.5"/>
<text text-anchor="start" x="122.5" y="-96.5" font-family="Helvetica,sans-Serif" font-size="10.00">/home/runner/work/cmake</text>
<text text-anchor="start" x="122.5" y="-85.5" font-family="Helvetica,sans-Serif" font-size="10.00">&#45;starter&#45;project/cmake</text>
<text text-anchor="start" x="122.5" y="-74.5" font-family="Helvetica,sans-Serif" font-size="10.00">&#45;starter&#45;project/application</text>
<text text-anchor="middle" x="188" y="-63.5" font-family="Helvetica,sans-Serif" font-size="10.00">/debug/instrumentor.h</text>
</a>
</g>
</g>
<!-- Node2 -->
<g id="node2" class="node">
<title>Node2</title>
<g id="a_node2"><a xlink:title=" ">
<polygon fill="white" stroke="#bfbfbf" points="0,-0.5 0,-19.5 48,-19.5 48,-0.5 0,-0.5"/>
<text text-anchor="middle" x="24" y="-7.5" font-family="Helvetica,sans-Serif" font-size="10.00">mutex</text>
</a>
</g>
</g>
<!-- Node1&#45;&gt;Node2 -->
<g id="edge1" class="edge">
<title>Node1&#45;&gt;Node2</title>
<path fill="none" stroke="midnightblue" d="M129.72,-56.45C103.81,-45.31 74.44,-32.68 53.24,-23.57"/>
<polygon fill="midnightblue" stroke="midnightblue" points="54.41,-20.26 43.84,-19.53 51.64,-26.69 54.41,-20.26"/>
</g>
<!-- Node3 -->
<g id="node3" class="node">
<title>Node3</title>
<g id="a_node3"><a xlink:title=" ">
<polygon fill="white" stroke="#bfbfbf" points="66,-0.5 66,-19.5 116,-19.5 116,-0.5 66,-0.5"/>
<text text-anchor="middle" x="91" y="-7.5" font-family="Helvetica,sans-Serif" font-size="10.00">chrono</text>
</a>
</g>
</g>
<!-- Node1&#45;&gt;Node3 -->
<g id="edge2" class="edge">
<title>Node1&#45;&gt;Node3</title>
<path fill="none" stroke="midnightblue" d="M153.53,-56.45C139.33,-46.13 123.38,-34.53 111.14,-25.64"/>
<polygon fill="midnightblue" stroke="midnightblue" points="113.11,-22.74 102.96,-19.7 109,-28.41 113.11,-22.74"/>
</g>
<!-- Node4 -->
<g id="node4" class="node">
<title>Node4</title>
<g id="a_node4"><a xlink:title=" ">
<polygon fill="white" stroke="#bfbfbf" points="134,-0.5 134,-19.5 178,-19.5 178,-0.5 134,-0.5"/>
<text text-anchor="middle" x="156" y="-7.5" font-family="Helvetica,sans-Serif" font-size="10.00">string</text>
</a>
</g>
</g>
<!-- Node1&#45;&gt;Node4 -->
<g id="edge3" class="edge">
<title>Node1&#45;&gt;Node4</title>
<path fill="none" stroke="midnightblue" d="M176.63,-56.45C172.49,-47.33 167.9,-37.22 164.1,-28.85"/>
<polygon fill="midnightblue" stroke="midnightblue" points="167.27,-27.35 159.95,-19.7 160.89,-30.25 167.27,-27.35"/>
</g>
<!-- Node5 -->
<g id="node5" class="node">
<title>Node5</title>
<g id="a_node5"><a xlink:title=" ">
<polygon fill="white" stroke="#bfbfbf" points="196,-0.5 196,-19.5 244,-19.5 244,-0.5 196,-0.5"/>
<text text-anchor="middle" x="220" y="-7.5" font-family="Helvetica,sans-Serif" font-size="10.00">thread</text>
</a>
</g>
</g>
<!-- Node1&#45;&gt;Node5 -->
<g id="edge4" class="edge">
<title>Node1&#45;&gt;Node5</title>
<path fill="none" stroke="midnightblue" d="M199.37,-56.45C203.51,-47.33 208.1,-37.22 211.9,-28.85"/>
<polygon fill="midnightblue" stroke="midnightblue" points="215.11,-30.25 216.05,-19.7 208.73,-27.35 215.11,-30.25"/>
</g>
<!-- Node6 -->
<g id="node6" class="node">
<title>Node6</title>
<g id="a_node6"><a xlink:title=" ">
<polygon fill="white" stroke="#bfbfbf" points="262.5,-0.5 262.5,-19.5 317.5,-19.5 317.5,-0.5 262.5,-0.5"/>
<text text-anchor="middle" x="290" y="-7.5" font-family="Helvetica,sans-Serif" font-size="10.00">fstream</text>
</a>
</g>
</g>
<!-- Node1&#45;&gt;Node6 -->
<g id="edge5" class="edge">
<title>Node1&#45;&gt;Node6</title>
<path fill="none" stroke="midnightblue" d="M224.25,-56.45C239.18,-46.13 255.95,-34.53 268.82,-25.64"/>
<polygon fill="midnightblue" stroke="midnightblue" points="271.18,-28.26 277.42,-19.7 267.2,-22.5 271.18,-28.26"/>
</g>
<!-- Node7 -->
<g id="node7" class="node">
<title>Node7</title>
<g id="a_node7"><a xlink:title=" ">
<polygon fill="white" stroke="#bfbfbf" points="336,-0.5 336,-19.5 400,-19.5 400,-0.5 336,-0.5"/>
<text text-anchor="middle" x="368" y="-7.5" font-family="Helvetica,sans-Serif" font-size="10.00">algorithm</text>
</a>
</g>
</g>
<!-- Node1&#45;&gt;Node7 -->
<g id="edge6" class="edge">
<title>Node1&#45;&gt;Node7</title>
<path fill="none" stroke="midnightblue" d="M251.97,-56.45C280.79,-45.16 313.51,-32.34 336.84,-23.2"/>
<polygon fill="midnightblue" stroke="midnightblue" points="338.19,-26.43 346.23,-19.53 335.64,-19.92 338.19,-26.43"/>
</g>
</g>
</svg>
