<?xml version="1.0" encoding="UTF-8" standalone="no"?>
<!DOCTYPE svg PUBLIC "-//W3C//DTD SVG 1.1//EN"
 "http://www.w3.org/Graphics/SVG/1.1/DTD/svg11.dtd">
<!-- Generated by graphviz version 2.43.0 (0)
 -->
<!-- Title: /home/runner/work/cmake&#45;starter&#45;project/cmake&#45;starter&#45;project/application/core/logger.h Pages: 1 -->
<svg width="320pt" height="150pt"
 viewBox="0.00 0.00 320.00 150.00" xmlns="http://www.w3.org/2000/svg" xmlns:xlink="http://www.w3.org/1999/xlink">
<g id="graph0" class="graph" transform="scale(1 1) rotate(0) translate(4 146)">
<title>/home/runner/work/cmake&#45;starter&#45;project/cmake&#45;starter&#45;project/application/core/logger.h</title>
<polygon fill="white" stroke="transparent" points="-4,4 -4,-146 316,-146 316,4 -4,4"/>
<!-- Node1 -->
<g id="node1" class="node">
<title>Node1</title>
<g id="a_node1"><a xlink:title="Simple Log Utility.">
<polygon fill="#bfbfbf" stroke="black" points="82,-89.5 82,-141.5 229,-141.5 229,-89.5 82,-89.5"/>
<text text-anchor="start" x="90" y="-129.5" font-family="Helvetica,sans-Serif" font-size="10.00">/home/runner/work/cmake</text>
<text text-anchor="start" x="90" y="-118.5" font-family="Helvetica,sans-Serif" font-size="10.00">&#45;starter&#45;project/cmake</text>
<text text-anchor="start" x="90" y="-107.5" font-family="Helvetica,sans-Serif" font-size="10.00">&#45;starter&#45;project/application</text>
<text text-anchor="middle" x="155.5" y="-96.5" font-family="Helvetica,sans-Serif" font-size="10.00">/core/logger.h</text>
</a>
</g>
</g>
<!-- Node2 -->
<g id="node2" class="node">
<title>Node2</title>
<g id="a_node2"><a xlink:title=" ">
<polygon fill="white" stroke="#bfbfbf" points="0,-0.5 0,-52.5 147,-52.5 147,-0.5 0,-0.5"/>
<text text-anchor="start" x="8" y="-40.5" font-family="Helvetica,sans-Serif" font-size="10.00">/home/runner/work/cmake</text>
<text text-anchor="start" x="8" y="-29.5" font-family="Helvetica,sans-Serif" font-size="10.00">&#45;starter&#45;project/cmake</text>
<text text-anchor="start" x="8" y="-18.5" font-family="Helvetica,sans-Serif" font-size="10.00">&#45;starter&#45;project/application</text>
<text text-anchor="middle" x="73.5" y="-7.5" font-family="Helvetica,sans-Serif" font-size="10.00">/core/logger.cpp</text>
</a>
</g>
</g>
<!-- Node1&#45;&gt;Node2 -->
<g id="edge1" class="edge">
<title>Node1&#45;&gt;Node2</title>
<path fill="none" stroke="midnightblue" d="M124.67,-81.79C115.56,-72.13 105.74,-61.71 97.16,-52.61"/>
<polygon fill="midnightblue" stroke="midnightblue" points="122.38,-84.46 131.78,-89.34 127.47,-79.66 122.38,-84.46"/>
</g>
<!-- Node3 -->
<g id="node3" class="node">
<title>Node3</title>
<g id="a_node3"><a xlink:href="pch_8hpp.html" target="_top" xlink:title="Pre&#45;Compiled Header.">
<polygon fill="white" stroke="black" points="165,-0.5 165,-52.5 312,-52.5 312,-0.5 165,-0.5"/>
<text text-anchor="start" x="173" y="-40.5" font-family="Helvetica,sans-Serif" font-size="10.00">/home/runner/work/cmake</text>
<text text-anchor="start" x="173" y="-29.5" font-family="Helvetica,sans-Serif" font-size="10.00">&#45;starter&#45;project/cmake</text>
<text text-anchor="start" x="173" y="-18.5" font-family="Helvetica,sans-Serif" font-size="10.00">&#45;starter&#45;project/application</text>
<text text-anchor="middle" x="238.5" y="-7.5" font-family="Helvetica,sans-Serif" font-size="10.00">/pch.hpp</text>
</a>
</g>
</g>
<!-- Node1&#45;&gt;Node3 -->
<g id="edge2" class="edge">
<title>Node1&#45;&gt;Node3</title>
<path fill="none" stroke="midnightblue" d="M186.43,-82.08C195.73,-72.34 205.78,-61.8 214.55,-52.61"/>
<polygon fill="midnightblue" stroke="midnightblue" points="183.88,-79.68 179.51,-89.34 188.94,-84.52 183.88,-79.68"/>
</g>
</g>
</svg>
