<?xml version="1.0" encoding="UTF-8" standalone="no"?>
<!DOCTYPE svg PUBLIC "-//W3C//DTD SVG 1.1//EN"
 "http://www.w3.org/Graphics/SVG/1.1/DTD/svg11.dtd">
<!-- Generated by graphviz version 2.43.0 (0)
 -->
<!-- Title: /home/runner/work/cmake&#45;starter&#45;project/cmake&#45;starter&#45;project/application/pch.hpp Pages: 1 -->
<svg width="836pt" height="173pt"
 viewBox="0.00 0.00 835.50 173.00" xmlns="http://www.w3.org/2000/svg" xmlns:xlink="http://www.w3.org/1999/xlink">
<g id="graph0" class="graph" transform="scale(1 1) rotate(0) translate(4 169)">
<title>/home/runner/work/cmake&#45;starter&#45;project/cmake&#45;starter&#45;project/application/pch.hpp</title>
<polygon fill="white" stroke="transparent" points="-4,4 -4,-169 831.5,-169 831.5,4 -4,4"/>
<!-- Node1 -->
<g id="node1" class="node">
<title>Node1</title>
<g id="a_node1"><a xlink:title="Pre&#45;Compiled Header.">
<polygon fill="#bfbfbf" stroke="black" points="201,-112.5 201,-164.5 348,-164.5 348,-112.5 201,-112.5"/>
<text text-anchor="start" x="209" y="-152.5" font-family="Helvetica,sans-Serif" font-size="10.00">/home/runner/work/cmake</text>
<text text-anchor="start" x="209" y="-141.5" font-family="Helvetica,sans-Serif" font-size="10.00">&#45;starter&#45;project/cmake</text>
<text text-anchor="start" x="209" y="-130.5" font-family="Helvetica,sans-Serif" font-size="10.00">&#45;starter&#45;project/application</text>
<text text-anchor="middle" x="274.5" y="-119.5" font-family="Helvetica,sans-Serif" font-size="10.00">/pch.hpp</text>
</a>
</g>
</g>
<!-- Node2 -->
<g id="node2" class="node">
<title>Node2</title>
<g id="a_node2"><a xlink:href="config_8h_source.html" target="_top" xlink:title=" ">
<polygon fill="white" stroke="black" points="0,-56.5 0,-75.5 55,-75.5 55,-56.5 0,-56.5"/>
<text text-anchor="middle" x="27.5" y="-63.5" font-family="Helvetica,sans-Serif" font-size="10.00">config.h</text>
</a>
</g>
</g>
<!-- Node1&#45;&gt;Node2 -->
<g id="edge1" class="edge">
<title>Node1&#45;&gt;Node2</title>
<path fill="none" stroke="midnightblue" d="M200.73,-116.44C156.09,-103.7 101.05,-87.99 65.15,-77.75"/>
<polygon fill="midnightblue" stroke="midnightblue" points="65.69,-74.26 55.11,-74.88 63.77,-80.99 65.69,-74.26"/>
</g>
<!-- Node3 -->
<g id="node3" class="node">
<title>Node3</title>
<g id="a_node3"><a xlink:href="platform__detection_8h.html" target="_top" xlink:title="Platorm detection using predefined macros.">
<polygon fill="white" stroke="black" points="73,-56.5 73,-75.5 216,-75.5 216,-56.5 73,-56.5"/>
<text text-anchor="middle" x="144.5" y="-63.5" font-family="Helvetica,sans-Serif" font-size="10.00">core/platform_detection.h</text>
</a>
</g>
</g>
<!-- Node1&#45;&gt;Node3 -->
<g id="edge2" class="edge">
<title>Node1&#45;&gt;Node3</title>
<path fill="none" stroke="midnightblue" d="M228.3,-112.45C208.41,-101.66 185.96,-89.48 169.3,-80.45"/>
<polygon fill="midnightblue" stroke="midnightblue" points="170.68,-77.22 160.22,-75.53 167.35,-83.37 170.68,-77.22"/>
</g>
<!-- Node4 -->
<g id="node4" class="node">
<title>Node4</title>
<g id="a_node4"><a xlink:href="logger_8h.html" target="_top" xlink:title="Simple Log Utility.">
<polygon fill="white" stroke="black" points="234.5,-56.5 234.5,-75.5 314.5,-75.5 314.5,-56.5 234.5,-56.5"/>
<text text-anchor="middle" x="274.5" y="-63.5" font-family="Helvetica,sans-Serif" font-size="10.00">core/logger.h</text>
</a>
</g>
</g>
<!-- Node1&#45;&gt;Node4 -->
<g id="edge3" class="edge">
<title>Node1&#45;&gt;Node4</title>
<path fill="none" stroke="midnightblue" d="M274.5,-112.45C274.5,-103.73 274.5,-94.1 274.5,-85.96"/>
<polygon fill="midnightblue" stroke="midnightblue" points="278,-85.7 274.5,-75.7 271,-85.7 278,-85.7"/>
</g>
<!-- Node6 -->
<g id="node6" class="node">
<title>Node6</title>
<g id="a_node6"><a xlink:href="assert_8h.html" target="_top" xlink:title="Some Assertion Utilities.">
<polygon fill="white" stroke="black" points="333,-56.5 333,-75.5 422,-75.5 422,-56.5 333,-56.5"/>
<text text-anchor="middle" x="377.5" y="-63.5" font-family="Helvetica,sans-Serif" font-size="10.00">debug/assert.h</text>
</a>
</g>
</g>
<!-- Node1&#45;&gt;Node6 -->
<g id="edge5" class="edge">
<title>Node1&#45;&gt;Node6</title>
<path fill="none" stroke="midnightblue" d="M311.1,-112.45C326.33,-102.03 343.45,-90.31 356.49,-81.38"/>
<polygon fill="midnightblue" stroke="midnightblue" points="358.52,-84.23 364.8,-75.7 354.57,-78.46 358.52,-84.23"/>
</g>
<!-- Node8 -->
<g id="node8" class="node">
<title>Node8</title>
<g id="a_node8"><a xlink:href="instrumentor_8h.html" target="_top" xlink:title="Simple Instrumentor for Profiling.">
<polygon fill="white" stroke="black" points="523,-56.5 523,-75.5 644,-75.5 644,-56.5 523,-56.5"/>
<text text-anchor="middle" x="583.5" y="-63.5" font-family="Helvetica,sans-Serif" font-size="10.00">debug/instrumentor.h</text>
</a>
</g>
</g>
<!-- Node1&#45;&gt;Node8 -->
<g id="edge7" class="edge">
<title>Node1&#45;&gt;Node8</title>
<path fill="none" stroke="midnightblue" d="M348.12,-120.7C406.4,-107.41 486.07,-89.23 536.15,-77.8"/>
<polygon fill="midnightblue" stroke="midnightblue" points="537.09,-81.18 546.06,-75.54 535.54,-74.35 537.09,-81.18"/>
</g>
<!-- Node5 -->
<g id="node5" class="node">
<title>Node5</title>
<g id="a_node5"><a xlink:title=" ">
<polygon fill="white" stroke="#bfbfbf" points="228,-0.5 228,-19.5 321,-19.5 321,-0.5 228,-0.5"/>
<text text-anchor="middle" x="274.5" y="-7.5" font-family="Helvetica,sans-Serif" font-size="10.00">spdlog/spdlog.h</text>
</a>
</g>
</g>
<!-- Node4&#45;&gt;Node5 -->
<g id="edge4" class="edge">
<title>Node4&#45;&gt;Node5</title>
<path fill="none" stroke="midnightblue" d="M274.5,-56.08C274.5,-49.01 274.5,-38.86 274.5,-29.99"/>
<polygon fill="midnightblue" stroke="midnightblue" points="278,-29.75 274.5,-19.75 271,-29.75 278,-29.75"/>
</g>
<!-- Node7 -->
<g id="node7" class="node">
<title>Node7</title>
<g id="a_node7"><a xlink:title=" ">
<polygon fill="white" stroke="#bfbfbf" points="341.5,-0.5 341.5,-19.5 409.5,-19.5 409.5,-0.5 341.5,-0.5"/>
<text text-anchor="middle" x="375.5" y="-7.5" font-family="Helvetica,sans-Serif" font-size="10.00">filesystem</text>
</a>
</g>
</g>
<!-- Node6&#45;&gt;Node7 -->
<g id="edge6" class="edge">
<title>Node6&#45;&gt;Node7</title>
<path fill="none" stroke="midnightblue" d="M377.17,-56.08C376.91,-49.01 376.53,-38.86 376.2,-29.99"/>
<polygon fill="midnightblue" stroke="midnightblue" points="379.69,-29.61 375.82,-19.75 372.7,-29.87 379.69,-29.61"/>
</g>
<!-- Node9 -->
<g id="node9" class="node">
<title>Node9</title>
<g id="a_node9"><a xlink:title=" ">
<polygon fill="white" stroke="#bfbfbf" points="427.5,-0.5 427.5,-19.5 475.5,-19.5 475.5,-0.5 427.5,-0.5"/>
<text text-anchor="middle" x="451.5" y="-7.5" font-family="Helvetica,sans-Serif" font-size="10.00">mutex</text>
</a>
</g>
</g>
<!-- Node8&#45;&gt;Node9 -->
<g id="edge8" class="edge">
<title>Node8&#45;&gt;Node9</title>
<path fill="none" stroke="midnightblue" d="M562.58,-56.44C540.76,-47.52 506.35,-33.44 481.61,-23.32"/>
<polygon fill="midnightblue" stroke="midnightblue" points="482.9,-20.06 472.32,-19.52 480.25,-26.54 482.9,-20.06"/>
</g>
<!-- Node10 -->
<g id="node10" class="node">
<title>Node10</title>
<g id="a_node10"><a xlink:title=" ">
<polygon fill="white" stroke="#bfbfbf" points="493.5,-0.5 493.5,-19.5 543.5,-19.5 543.5,-0.5 493.5,-0.5"/>
<text text-anchor="middle" x="518.5" y="-7.5" font-family="Helvetica,sans-Serif" font-size="10.00">chrono</text>
</a>
</g>
</g>
<!-- Node8&#45;&gt;Node10 -->
<g id="edge9" class="edge">
<title>Node8&#45;&gt;Node10</title>
<path fill="none" stroke="midnightblue" d="M573.06,-56.32C563.35,-48.26 548.68,-36.08 537,-26.37"/>
<polygon fill="midnightblue" stroke="midnightblue" points="539.06,-23.53 529.13,-19.83 534.59,-28.92 539.06,-23.53"/>
</g>
<!-- Node11 -->
<g id="node11" class="node">
<title>Node11</title>
<g id="a_node11"><a xlink:title=" ">
<polygon fill="white" stroke="#bfbfbf" points="561.5,-0.5 561.5,-19.5 605.5,-19.5 605.5,-0.5 561.5,-0.5"/>
<text text-anchor="middle" x="583.5" y="-7.5" font-family="Helvetica,sans-Serif" font-size="10.00">string</text>
</a>
</g>
</g>
<!-- Node8&#45;&gt;Node11 -->
<g id="edge10" class="edge">
<title>Node8&#45;&gt;Node11</title>
<path fill="none" stroke="midnightblue" d="M583.5,-56.08C583.5,-49.01 583.5,-38.86 583.5,-29.99"/>
<polygon fill="midnightblue" stroke="midnightblue" points="587,-29.75 583.5,-19.75 580,-29.75 587,-29.75"/>
</g>
<!-- Node12 -->
<g id="node12" class="node">
<title>Node12</title>
<g id="a_node12"><a xlink:title=" ">
<polygon fill="white" stroke="#bfbfbf" points="623.5,-0.5 623.5,-19.5 671.5,-19.5 671.5,-0.5 623.5,-0.5"/>
<text text-anchor="middle" x="647.5" y="-7.5" font-family="Helvetica,sans-Serif" font-size="10.00">thread</text>
</a>
</g>
</g>
<!-- Node8&#45;&gt;Node12 -->
<g id="edge11" class="edge">
<title>Node8&#45;&gt;Node12</title>
<path fill="none" stroke="midnightblue" d="M593.78,-56.32C603.34,-48.26 617.78,-36.08 629.28,-26.37"/>
<polygon fill="midnightblue" stroke="midnightblue" points="631.64,-28.96 637.03,-19.83 627.13,-23.61 631.64,-28.96"/>
</g>
<!-- Node13 -->
<g id="node13" class="node">
<title>Node13</title>
<g id="a_node13"><a xlink:title=" ">
<polygon fill="white" stroke="#bfbfbf" points="690,-0.5 690,-19.5 745,-19.5 745,-0.5 690,-0.5"/>
<text text-anchor="middle" x="717.5" y="-7.5" font-family="Helvetica,sans-Serif" font-size="10.00">fstream</text>
</a>
</g>
</g>
<!-- Node8&#45;&gt;Node13 -->
<g id="edge12" class="edge">
<title>Node8&#45;&gt;Node13</title>
<path fill="none" stroke="midnightblue" d="M604.73,-56.44C626.88,-47.52 661.82,-33.44 686.94,-23.32"/>
<polygon fill="midnightblue" stroke="midnightblue" points="688.4,-26.5 696.37,-19.52 685.78,-20.01 688.4,-26.5"/>
</g>
<!-- Node14 -->
<g id="node14" class="node">
<title>Node14</title>
<g id="a_node14"><a xlink:title=" ">
<polygon fill="white" stroke="#bfbfbf" points="763.5,-0.5 763.5,-19.5 827.5,-19.5 827.5,-0.5 763.5,-0.5"/>
<text text-anchor="middle" x="795.5" y="-7.5" font-family="Helvetica,sans-Serif" font-size="10.00">algorithm</text>
</a>
</g>
</g>
<!-- Node8&#45;&gt;Node14 -->
<g id="edge13" class="edge">
<title>Node8&#45;&gt;Node14</title>
<path fill="none" stroke="midnightblue" d="M617.09,-56.44C654.12,-47.01 713.72,-31.83 753.73,-21.64"/>
<polygon fill="midnightblue" stroke="midnightblue" points="754.63,-25.02 763.45,-19.16 752.9,-18.24 754.63,-25.02"/>
</g>
</g>
</svg>
