<?xml version="1.0" encoding="UTF-8" standalone="no"?>
<!DOCTYPE svg PUBLIC "-//W3C//DTD SVG 1.1//EN"
 "http://www.w3.org/Graphics/SVG/1.1/DTD/svg11.dtd">
<!-- Generated by graphviz version 2.43.0 (0)
 -->
<!-- Title: Horus::Debug::ProfileResult Pages: 1 -->
<svg width="251pt" height="288pt"
 viewBox="0.00 0.00 251.00 288.00" xmlns="http://www.w3.org/2000/svg" xmlns:xlink="http://www.w3.org/1999/xlink">
<g id="graph0" class="graph" transform="scale(1 1) rotate(0) translate(4 284)">
<title>Horus::Debug::ProfileResult</title>
<polygon fill="white" stroke="transparent" points="-4,4 -4,-284 247,-284 247,4 -4,4"/>
<!-- Node1 -->
<g id="node1" class="node">
<title>Node1</title>
<g id="a_node1"><a xlink:title=" ">
<polygon fill="#bfbfbf" stroke="black" points="34,-0.5 34,-57.5 184,-57.5 184,-0.5 34,-0.5"/>
<text text-anchor="middle" x="109" y="-45.5" font-family="Helvetica,sans-Serif" font-size="10.00">Horus::Debug::ProfileResult</text>
<polyline fill="none" stroke="black" points="34,-38.5 184,-38.5 "/>
<text text-anchor="middle" x="109" y="-26.5" font-family="Helvetica,sans-Serif" font-size="10.00"> </text>
<polyline fill="none" stroke="black" points="34,-19.5 184,-19.5 "/>
<text text-anchor="middle" x="109" y="-7.5" font-family="Helvetica,sans-Serif" font-size="10.00"> </text>
</a>
</g>
</g>
<!-- Node2 -->
<g id="node2" class="node">
<title>Node2</title>
<g id="a_node2"><a xlink:title=" ">
<polygon fill="white" stroke="#bfbfbf" points="0,-116.5 0,-173.5 56,-173.5 56,-116.5 0,-116.5"/>
<text text-anchor="middle" x="28" y="-161.5" font-family="Helvetica,sans-Serif" font-size="10.00">uint32_t</text>
<polyline fill="none" stroke="#bfbfbf" points="0,-154.5 56,-154.5 "/>
<text text-anchor="middle" x="28" y="-142.5" font-family="Helvetica,sans-Serif" font-size="10.00"> </text>
<polyline fill="none" stroke="#bfbfbf" points="0,-135.5 56,-135.5 "/>
<text text-anchor="middle" x="28" y="-123.5" font-family="Helvetica,sans-Serif" font-size="10.00"> </text>
</a>
</g>
</g>
<!-- Node2&#45;&gt;Node1 -->
<g id="edge1" class="edge">
<title>Node2&#45;&gt;Node1</title>
<path fill="none" stroke="#404040" d="M31.47,-116.41C34.13,-103.3 38.8,-87.92 47,-76 49.39,-72.53 52.13,-69.21 55.09,-66.07"/>
<polygon fill="none" stroke="#404040" points="55.23,-65.94 56.84,-58.91 63.95,-57.68 62.34,-64.71 55.23,-65.94"/>
<text text-anchor="middle" x="76" y="-84.5" font-family="Helvetica,sans-Serif" font-size="10.00"> +thread_id</text>
</g>
<!-- Node3 -->
<g id="node3" class="node">
<title>Node3</title>
<g id="a_node3"><a xlink:title=" ">
<polygon fill="white" stroke="#bfbfbf" points="78,-116.5 78,-173.5 140,-173.5 140,-116.5 78,-116.5"/>
<text text-anchor="middle" x="109" y="-161.5" font-family="Helvetica,sans-Serif" font-size="10.00">long long</text>
<polyline fill="none" stroke="#bfbfbf" points="78,-154.5 140,-154.5 "/>
<text text-anchor="middle" x="109" y="-142.5" font-family="Helvetica,sans-Serif" font-size="10.00"> </text>
<polyline fill="none" stroke="#bfbfbf" points="78,-135.5 140,-135.5 "/>
<text text-anchor="middle" x="109" y="-123.5" font-family="Helvetica,sans-Serif" font-size="10.00"> </text>
</a>
</g>
</g>
<!-- Node3&#45;&gt;Node1 -->
<g id="edge2" class="edge">
<title>Node3&#45;&gt;Node1</title>
<path fill="none" stroke="#404040" d="M109,-116.4C109,-102.5 109,-85.39 109,-70.07"/>
<polygon fill="none" stroke="#404040" points="109,-69.74 105,-63.74 109,-57.74 113,-63.74 109,-69.74"/>
<text text-anchor="middle" x="126" y="-90" font-family="Helvetica,sans-Serif" font-size="10.00"> +start</text>
<text text-anchor="middle" x="126" y="-79" font-family="Helvetica,sans-Serif" font-size="10.00">+end</text>
</g>
<!-- Node4 -->
<g id="node4" class="node">
<title>Node4</title>
<g id="a_node4"><a xlink:title="STL class.">
<polygon fill="white" stroke="#bfbfbf" points="158.5,-116.5 158.5,-173.5 223.5,-173.5 223.5,-116.5 158.5,-116.5"/>
<text text-anchor="middle" x="191" y="-161.5" font-family="Helvetica,sans-Serif" font-size="10.00">std::string</text>
<polyline fill="none" stroke="#bfbfbf" points="158.5,-154.5 223.5,-154.5 "/>
<text text-anchor="middle" x="191" y="-142.5" font-family="Helvetica,sans-Serif" font-size="10.00"> </text>
<polyline fill="none" stroke="#bfbfbf" points="158.5,-135.5 223.5,-135.5 "/>
<text text-anchor="middle" x="191" y="-123.5" font-family="Helvetica,sans-Serif" font-size="10.00"> </text>
</a>
</g>
</g>
<!-- Node4&#45;&gt;Node1 -->
<g id="edge3" class="edge">
<title>Node4&#45;&gt;Node1</title>
<path fill="none" stroke="#404040" d="M174.15,-116.38C166.24,-103.83 156.47,-88.93 147,-76 144.93,-73.18 142.75,-70.3 140.52,-67.44"/>
<polygon fill="none" stroke="#404040" points="140.32,-67.19 133.46,-64.99 132.84,-57.81 139.71,-60 140.32,-67.19"/>
<text text-anchor="middle" x="183" y="-84.5" font-family="Helvetica,sans-Serif" font-size="10.00"> +name</text>
</g>
<!-- Node5 -->
<g id="node5" class="node">
<title>Node5</title>
<g id="a_node5"><a xlink:title="STL class.">
<polygon fill="white" stroke="#bfbfbf" points="139,-211.5 139,-279.5 243,-279.5 243,-211.5 139,-211.5"/>
<text text-anchor="start" x="147" y="-267.5" font-family="Helvetica,sans-Serif" font-size="10.00">std::basic_string&lt;</text>
<text text-anchor="middle" x="191" y="-256.5" font-family="Helvetica,sans-Serif" font-size="10.00"> char &gt;</text>
<polyline fill="none" stroke="#bfbfbf" points="139,-249.5 243,-249.5 "/>
<text text-anchor="middle" x="191" y="-237.5" font-family="Helvetica,sans-Serif" font-size="10.00"> </text>
<polyline fill="none" stroke="#bfbfbf" points="139,-230.5 243,-230.5 "/>
<text text-anchor="middle" x="191" y="-218.5" font-family="Helvetica,sans-Serif" font-size="10.00"> </text>
</a>
</g>
</g>
<!-- Node5&#45;&gt;Node4 -->
<g id="edge4" class="edge">
<title>Node5&#45;&gt;Node4</title>
<path fill="none" stroke="midnightblue" d="M191,-201.38C191,-191.94 191,-182.2 191,-173.57"/>
<polygon fill="none" stroke="midnightblue" points="187.5,-201.43 191,-211.43 194.5,-201.43 187.5,-201.43"/>
</g>
</g>
</svg>
