<?xml version="1.0" encoding="UTF-8" standalone="no"?>
<!DOCTYPE svg PUBLIC "-//W3C//DTD SVG 1.1//EN"
 "http://www.w3.org/Graphics/SVG/1.1/DTD/svg11.dtd">
<!-- Generated by graphviz version 2.43.0 (0)
 -->
<!-- Title: Horus::Debug::ProfileResult Pages: 1 -->
<svg width="247pt" height="174pt"
 viewBox="0.00 0.00 247.00 174.00" xmlns="http://www.w3.org/2000/svg" xmlns:xlink="http://www.w3.org/1999/xlink">
<g id="graph0" class="graph" transform="scale(1 1) rotate(0) translate(4 170)">
<title>Horus::Debug::ProfileResult</title>
<polygon fill="white" stroke="transparent" points="-4,4 -4,-170 243,-170 243,4 -4,4"/>
<!-- Node1 -->
<g id="node1" class="node">
<title>Node1</title>
<g id="a_node1"><a xlink:title=" ">
<polygon fill="#bfbfbf" stroke="black" points="30,-0.5 30,-19.5 180,-19.5 180,-0.5 30,-0.5"/>
<text text-anchor="middle" x="105" y="-7.5" font-family="Helvetica,sans-Serif" font-size="10.00">Horus::Debug::ProfileResult</text>
</a>
</g>
</g>
<!-- Node2 -->
<g id="node2" class="node">
<title>Node2</title>
<g id="a_node2"><a xlink:title=" ">
<polygon fill="white" stroke="#bfbfbf" points="0,-78.5 0,-97.5 56,-97.5 56,-78.5 0,-78.5"/>
<text text-anchor="middle" x="28" y="-85.5" font-family="Helvetica,sans-Serif" font-size="10.00">uint32_t</text>
</a>
</g>
</g>
<!-- Node2&#45;&gt;Node1 -->
<g id="edge1" class="edge">
<title>Node2&#45;&gt;Node1</title>
<path fill="none" stroke="#9a32cd" stroke-dasharray="5,2" d="M33.65,-68.9C37.53,-58.82 43.52,-46.62 52,-38 59.9,-29.98 70.68,-23.89 80.45,-19.55"/>
<polygon fill="#9a32cd" stroke="#9a32cd" points="30.33,-67.79 30.36,-78.39 36.95,-70.08 30.33,-67.79"/>
<text text-anchor="middle" x="76.5" y="-46.5" font-family="Helvetica,sans-Serif" font-size="10.00"> thread_id</text>
</g>
<!-- Node3 -->
<g id="node3" class="node">
<title>Node3</title>
<g id="a_node3"><a xlink:title=" ">
<polygon fill="white" stroke="#bfbfbf" points="74,-78.5 74,-97.5 136,-97.5 136,-78.5 74,-78.5"/>
<text text-anchor="middle" x="105" y="-85.5" font-family="Helvetica,sans-Serif" font-size="10.00">long long</text>
</a>
</g>
</g>
<!-- Node3&#45;&gt;Node1 -->
<g id="edge2" class="edge">
<title>Node3&#45;&gt;Node1</title>
<path fill="none" stroke="#9a32cd" stroke-dasharray="5,2" d="M105,-68.22C105,-52.7 105,-31.36 105,-19.62"/>
<polygon fill="#9a32cd" stroke="#9a32cd" points="101.5,-68.28 105,-78.28 108.5,-68.28 101.5,-68.28"/>
<text text-anchor="middle" x="116.5" y="-52" font-family="Helvetica,sans-Serif" font-size="10.00"> end</text>
<text text-anchor="middle" x="116.5" y="-41" font-family="Helvetica,sans-Serif" font-size="10.00">start</text>
</g>
<!-- Node4 -->
<g id="node4" class="node">
<title>Node4</title>
<g id="a_node4"><a xlink:title="STL class.">
<polygon fill="white" stroke="#bfbfbf" points="154.5,-78.5 154.5,-97.5 219.5,-97.5 219.5,-78.5 154.5,-78.5"/>
<text text-anchor="middle" x="187" y="-85.5" font-family="Helvetica,sans-Serif" font-size="10.00">std::string</text>
</a>
</g>
</g>
<!-- Node4&#45;&gt;Node1 -->
<g id="edge3" class="edge">
<title>Node4&#45;&gt;Node1</title>
<path fill="none" stroke="#9a32cd" stroke-dasharray="5,2" d="M170.06,-71.3C153.17,-55.64 127.83,-32.16 114.3,-19.62"/>
<polygon fill="#9a32cd" stroke="#9a32cd" points="167.88,-74.05 177.59,-78.28 172.64,-68.92 167.88,-74.05"/>
<text text-anchor="middle" x="170.5" y="-46.5" font-family="Helvetica,sans-Serif" font-size="10.00"> name</text>
</g>
<!-- Node5 -->
<g id="node5" class="node">
<title>Node5</title>
<g id="a_node5"><a xlink:title="STL class.">
<polygon fill="white" stroke="#bfbfbf" points="135,-135.5 135,-165.5 239,-165.5 239,-135.5 135,-135.5"/>
<text text-anchor="start" x="143" y="-153.5" font-family="Helvetica,sans-Serif" font-size="10.00">std::basic_string&lt;</text>
<text text-anchor="middle" x="187" y="-142.5" font-family="Helvetica,sans-Serif" font-size="10.00"> char &gt;</text>
</a>
</g>
</g>
<!-- Node5&#45;&gt;Node4 -->
<g id="edge4" class="edge">
<title>Node5&#45;&gt;Node4</title>
<path fill="none" stroke="midnightblue" d="M187,-125.35C187,-115.51 187,-104.78 187,-97.54"/>
<polygon fill="midnightblue" stroke="midnightblue" points="183.5,-125.47 187,-135.47 190.5,-125.47 183.5,-125.47"/>
</g>
</g>
</svg>
